<?xml version="1.0" encoding="UTF-8"?>
<svg xmlns="http://www.w3.org/2000/svg" width="420" height="632" viewBox="0 0 420 632">
  <rect width="420" height="632" fill="#0D1117" />
  <g stroke-linecap="round" stroke-linejoin="round" fill="none">
    <path d="M 256.00,155.00 L 185.00,178.00" stroke="#00E5FF" stroke-width="15.96" />
    <path d="M 256.00,155.00 L 178.00,173.00" stroke="#00E5FF" stroke-width="15.96" />
    <path d="M 178.00,173.00 L 107.00,170.00" stroke="#00E5FF" stroke-width="15.96" />
    <path d="M 185.00,178.00 L 136.00,227.00" stroke="#00E5FF" stroke-width="15.96" />
    <path d="M 136.00,227.00 L 120.00,164.00" stroke="#00E5FF" stroke-width="15.96" />
    <path d="M 256.00,155.00 L 247.00,330.00" stroke="#00E5FF" stroke-width="15.96" />
    <path d="M 185.00,178.00 L 188.00,329.00" stroke="#00E5FF" stroke-width="15.96" />
    <path d="M 247.00,330.00 L 188.00,329.00" stroke="#00E5FF" stroke-width="15.96" />
    <path d="M 247.00,330.00 L 231.00,456.00" stroke="#00E5FF" stroke-width="15.96" />
    <path d="M 231.00,456.00 L 222.00,561.00" stroke="#00E5FF" stroke-width="15.96" />
    <path d="M 188.00,329.00 L 173.00,453.00" stroke="#00E5FF" stroke-width="15.96" />
    <path d="M 173.00,453.00 L 166.00,561.00" stroke="#00E5FF" stroke-width="15.96" />
    <path d="M 222.00,561.00 L 227.00,601.00" stroke="#00E5FF" stroke-width="15.96" />
    <path d="M 166.00,561.00 L 158.00,602.00" stroke="#00E5FF" stroke-width="15.96" />
  </g>
  <g>
    <circle cx="222.00" cy="111.00" r="20.16" fill="#00E5FF" />
  </g>
</svg>
